<!DOCTYPE svg PUBLIC "-//W3C//DTD SVG 1.1//EN" "http://www.w3.org/Graphics/SVG/1.1/DTD/svg11.dtd">
<!-- Uploaded to: SVG Repo, www.svgrepo.com, Transformed by: SVG Repo Mixer Tools -->
<svg height="800px" width="800px" version="1.1" id="Capa_1" xmlns="http://www.w3.org/2000/svg" xmlns:xlink="http://www.w3.org/1999/xlink" viewBox="0 0 476.969 476.969" xml:space="preserve" fill="#000000">
<g id="SVGRepo_bgCarrier" stroke-width="0"/>
<g id="SVGRepo_tracerCarrier" stroke-linecap="round" stroke-linejoin="round"/>
<g id="SVGRepo_iconCarrier"> <g> <path style="fill:#ffffff;" d="M269.604,91.579H29.838C13.377,91.579,0,104.957,0,121.417V284.14 c0,16.461,13.377,29.84,29.838,29.84h80.36v39.366H97.524c-8.856,0-16.021,7.165-16.021,16.021c0,8.855,7.165,16.022,16.021,16.022 h104.394c8.855,0,16.023-7.167,16.023-16.022c0-8.857-7.167-16.021-16.023-16.021h-12.689V313.98h80.376 c16.461,0,29.838-13.379,29.838-29.84V121.417C299.442,104.957,286.065,91.579,269.604,91.579z M267.398,281.936H32.044V123.623 h235.354V281.936z"/> <path style="fill:#ffffff;" d="M460.32,134.074H356.084c-9.2,0-16.648,7.448-16.648,16.648v218.019 c0,9.2,7.448,16.648,16.648,16.648H460.32c9.201,0,16.648-7.448,16.648-16.648V150.723 C476.969,141.522,469.522,134.074,460.32,134.074z M408.186,318.234c-6.978,0-12.641-5.663-12.641-12.643 c0-6.978,5.663-12.642,12.641-12.642c6.979,0,12.643,5.664,12.643,12.642C420.829,312.571,415.165,318.234,408.186,318.234z M453.593,251.235c0,4.977-4.036,9.013-9.013,9.013h-72.756c-4.976,0-9.013-4.036-9.013-9.013v-21.403 c0-4.976,4.037-9.013,9.013-9.013h72.756c4.977,0,9.013,4.037,9.013,9.013V251.235z M453.593,191.09 c0,4.977-4.036,9.013-9.013,9.013h-72.756c-4.976,0-9.013-4.036-9.013-9.013v-21.403c0-4.977,4.037-9.013,9.013-9.013h72.756 c4.977,0,9.013,4.036,9.013,9.013V191.09z"/> </g> </g>
</svg>