<!DOCTYPE svg PUBLIC "-//W3C//DTD SVG 1.1//EN" "http://www.w3.org/Graphics/SVG/1.1/DTD/svg11.dtd">
<!-- Uploaded to: SVG Repo, www.svgrepo.com, Transformed by: SVG Repo Mixer Tools -->
<svg width="800px" height="800px" viewBox="0 0 48 48" xmlns="http://www.w3.org/2000/svg" fill="#000000">
<g id="SVGRepo_bgCarrier" stroke-width="0"/>
<g id="SVGRepo_tracerCarrier" stroke-linecap="round" stroke-linejoin="round"/>
<g id="SVGRepo_iconCarrier">
<defs>
<style>.a{fill:none;stroke:#ffffff;stroke-linecap:round;stroke-linejoin:round;}</style>
</defs>
<path class="a" d="M13.4532,29.8241s1.8779,2.7787,3.71,2.7787c1.9066.0046,2.6519-1.0608,3.7394-2.3791l5.28-8.4515a3.4735,3.4735,0,0,1,2.6347-1.5254h8.0732c1.5641,0,1.4257,2.8965-.1413,2.8965H30.0264a2.7933,2.7933,0,0,0-2.443,1.5908l-1.98,3.2477,5.8386,0c1.7546,0,2.901,4.629,5.3235,4.629h5.0622l-2.8941-4.6987A6.0526,6.0526,0,0,0,43.5,22.0445c0-4.6262-3.2735-6.6321-4.9652-6.6321H25.3679a3.7159,3.7159,0,0,0-2.9658,1.932L17.32,25.7525l-5.0459-8.4117s-1.2818-1.95-2.9943-1.95L4.5,15.3889Z"/>
</g>
</svg>